<?xml version="1.0" standalone="no"?>
<!DOCTYPE svg PUBLIC "-//W3C//DTD SVG 20010904//EN"
 "http://www.w3.org/TR/2001/REC-SVG-20010904/DTD/svg10.dtd">
<svg version="1.0" xmlns="http://www.w3.org/2000/svg"
 width="96.000000pt" height="96.000000pt" viewBox="0 0 96.000000 96.000000"
 preserveAspectRatio="xMidYMid meet">
<metadata>
Created by potrace 1.14, written by Peter Selinger 2001-2017
</metadata>
<g transform="translate(0.000000,96.000000) scale(0.100000,-0.100000)"
fill="#000000" stroke="none">
<path d="M380 864 c-295 -78 -395 -445 -181 -663 154 -158 418 -155 569 8 168
179 134 471 -68 601 -96 61 -215 81 -320 54z m207 -162 c89 -46 138 -124 137
-222 -1 -74 -23 -127 -75 -178 -49 -48 -95 -66 -169 -66 -63 1 -115 19 -160
56 -64 53 -102 168 -82 243 24 85 96 162 172 183 50 14 133 6 177 -16z"/>
</g>
</svg>
